name C:\Users\tom_v\My Drive\PostDoc\MusculoskeletalSpecialization\ResultsSprinting\Case_3\motion.mot
datacolumns 32
datarows 5
range 0.28143896 0.30395408
endheader 
time	pelvis_tilt	pelvis_list	pelvis_rotation	pelvis_tx	pelvis_ty	pelvis_tz	hip_flexion_r	hip_adduction_r	hip_rotation_r	knee_angle_r	ankle_angle_r	subtalar_angle_r	mtp_angle_r	hip_flexion_l	hip_adduction_l	hip_rotation_l	knee_angle_l	ankle_angle_l	subtalar_angle_l	mtp_angle_l	lumbar_extension	lumbar_bending	lumbar_rotation	arm_flex_r	arm_add_r	arm_rot_r	elbow_flex_r	arm_flex_l	arm_add_l	arm_rot_l	elbow_flex_l	
          0.28143896	        -10.66168490	          2.42344693	         -0.14015926	          0.93719173	          0.89549921	         -0.00007720	          2.01685429	         -2.14585812	          2.36601990	        -52.60523772	         -8.38564669	         13.61428921	         16.55366456	         41.75548866	          7.73610655	          4.66751689	        -38.35908929	          5.48200775	         -6.42148523	          0.33259534	         -2.73752768	         -4.95573924	          4.05709804	          7.46397632	         -5.30541641	         14.63008627	         13.75634878	          8.19003507	         -5.63475244	          6.23072244	         20.97823608	
          0.28706774	        -10.59640344	          2.37150456	         -0.30744036	          0.95677180	          0.89231198	         -0.00038694	          3.15582403	         -2.23343614	          2.14871492	        -54.69804825	         -7.44741413	         13.46397464	         15.38690402	         40.82174843	          8.03587961	          5.24306971	        -39.60914765	          8.10039797	         -6.85747872	          1.26364907	         -2.60876245	         -4.86545907	          3.80536913	          7.92612271	         -5.01465221	         14.48870371	         12.32971988	          8.48997234	         -5.65114276	          7.03427267	         19.41867821	
          0.29269652	        -10.53991441	          2.32784635	         -0.46867354	          0.97616912	          0.88920570	         -0.00069131	          4.41225899	         -2.31388115	          1.93188684	        -56.83519276	         -6.52997477	         13.24900738	         14.29788612	         39.79432242	          8.33817072	          5.78888146	        -40.66653719	         10.63768770	         -7.32962818	          2.32761613	         -2.50075921	         -4.78032704	          3.53124500	          8.31925092	         -4.78009014	         14.35531149	         11.22215132	          8.70166463	         -5.69539345	          7.82916245	         18.16914350	
          0.29832530	        -10.49347354	          2.28863662	         -0.62063033	          0.99530164	          0.88630008	         -0.00100084	          5.78681914	         -2.37569151	          1.72989807	        -58.99399650	         -5.63339001	         12.97214942	         13.27987985	         38.75853290	          8.64621857	          6.30541569	        -41.63714547	         12.98047826	         -7.84200826	          3.38841770	         -2.42568597	         -4.69342814	          3.23822060	          8.63850247	         -4.60960774	         14.22014418	         10.47637721	          8.83265261	         -5.76902464	          8.60506105	         17.25400140	
          0.30395408	        -10.45750591	          2.25014117	         -0.76383430	          1.01415418	          0.88367568	         -0.00131550	          7.26760077	         -2.41419071	          1.54208534	        -61.13893347	         -4.75417438	         12.63711619	         12.32866749	         37.75230049	          8.94858921	          6.77425883	        -42.56176045	         14.97607905	         -8.38090381	          4.51089592	         -2.38587309	         -4.59870753	          2.92986439	          8.87350564	         -4.50745946	         14.07382126	         10.12650229	          8.87769270	         -5.87656465	          9.34454045	         16.70010751	
